<?xml version="1.0" encoding="utf-8"?>
<!-- Generator: Adobe Illustrator 21.1.0, SVG Export Plug-In . SVG Version: 6.00 Build 0)  -->
<svg version="1.1" id="Layer_1" xmlns="http://www.w3.org/2000/svg" xmlns:xlink="http://www.w3.org/1999/xlink" x="0px" y="0px"
	 viewBox="0 0 154.6 150.5" style="enable-background:new 0 0 154.6 150.5;" xml:space="preserve">
<style type="text/css">
	.st0{fill:#0F344A;}
	.st1{fill:#194E70;}
	.st2{fill:#216795;}
	.st3{fill:#4E85A9;}
	.st4{fill:#79A3BE;}
	.st5{fill:#A6C2D4;}
	.st6{fill:#D3E0EA;}
</style>
<path class="st0" d="M18.8,91.4c0,0-3.9-40.9,0-43c3.1-1.7,43.8,0,43.8,0L18.8,91.4z"/>
<path class="st1" d="M90.2,45.8c0,0-20.4-23.5-29.3-27.2c-2.2-0.9-7.4-1-9.6,0c-8.5,3.7-25.4,27.2-25.4,27.2H90.2z"/>
<path class="st2" d="M104.8,18.6c-3.7-3.8-37.7,0-37.7,0l37.7,36.8C104.8,55.4,106.5,20.4,104.8,18.6z"/>
<path class="st3" d="M107.6,84.9V26.1c0,0,29.9,21.5,29.8,27.2C137.4,55.5,107.6,84.9,107.6,84.9z"/>
<path class="st4" d="M135.3,60.1L95,100.5c0,0,37.8,4.4,40.3,0C137.4,96.8,135.3,60.1,135.3,60.1z"/>
<path class="st5" d="M67.6,104.4h64c0,0-24,29.8-32,29.8C97.2,134.2,67.6,104.4,67.6,104.4z"/>
<path class="st6" d="M53.2,94.3c0,0-9.1,28.7-2.5,35.3c7,7,39.5,0,39.5,0L53.2,94.3z"/>
</svg>
