<?xml version="1.0" standalone="no"?>
<!DOCTYPE svg PUBLIC "-//W3C//DTD SVG 20010904//EN"
 "http://www.w3.org/TR/2001/REC-SVG-20010904/DTD/svg10.dtd">
<svg version="1.0" xmlns="http://www.w3.org/2000/svg"
 width="960.000000pt" height="960.000000pt" viewBox="0 0 960.000000 960.000000"
 preserveAspectRatio="xMidYMid meet">
<metadata>
Created by potrace 1.11, written by Peter Selinger 2001-2013
</metadata>
<g transform="translate(0.000000,960.000000) scale(0.100000,-0.100000)"
fill="#000000" stroke="none">
<path d="M5708 9475 c-2 -2 -77 -6 -168 -10 -91 -4 -187 -8 -215 -10 -27 -2
-95 -7 -150 -10 -55 -3 -129 -7 -165 -10 -72 -5 -163 -12 -285 -20 -44 -3 -96
-8 -115 -10 -19 -3 -69 -8 -110 -10 -41 -3 -91 -7 -110 -10 -19 -2 -66 -7
-105 -11 -38 -3 -83 -8 -100 -10 -16 -2 -64 -6 -105 -10 -41 -3 -77 -8 -79
-10 -4 -4 119 -127 548 -544 149 -146 345 -337 435 -425 91 -88 282 -275 426
-415 144 -140 326 -318 405 -395 78 -77 258 -252 399 -390 141 -137 340 -331
441 -431 102 -99 185 -180 185 -179 0 1 36 -35 80 -79 44 -44 80 -76 80 -70 1
5 3 59 5 119 3 61 7 160 9 220 5 101 10 239 21 565 27 760 26 1685 -1 1865 -4
22 -7 55 -8 73 0 17 -4 32 -8 32 -5 0 -8 8 -8 18 -1 38 -48 72 -141 101 -35
11 -82 23 -104 26 -23 3 -52 8 -65 10 -14 3 -52 7 -85 10 -33 3 -73 8 -90 11
-31 5 -812 14 -817 9z"/>
<path d="M2988 9398 c-88 -8 -123 -14 -180 -27 -66 -15 -248 -106 -248 -123 0
-5 -6 -8 -14 -8 -8 0 -17 -7 -20 -16 -3 -8 -10 -12 -16 -9 -5 3 -10 3 -10 -2
0 -4 -17 -19 -38 -33 -20 -14 -41 -30 -47 -36 -5 -5 -39 -35 -75 -64 -146
-122 -404 -380 -575 -574 -33 -38 -76 -86 -95 -106 -19 -21 -51 -57 -70 -80
-40 -48 -62 -74 -93 -110 -12 -14 -51 -61 -87 -105 -36 -44 -67 -82 -70 -85
-3 -3 -41 -50 -85 -105 -44 -55 -82 -102 -86 -105 -3 -3 -66 -84 -140 -180
-74 -96 -139 -182 -146 -190 -6 -8 -43 -58 -82 -110 -39 -52 -79 -106 -90
-120 -11 -13 -18 -26 -15 -29 5 -6 5113 -6 5118 0 3 2 -14 25 -37 50 -23 25
-57 63 -76 84 -81 95 -391 432 -517 561 -44 46 -79 84 -77 84 2 0 -135 138
-304 308 -263 261 -366 361 -507 487 -13 11 -40 36 -62 55 -21 20 -81 71 -132
113 -52 43 -106 89 -120 102 -15 14 -30 25 -34 25 -3 0 -13 6 -20 13 -34 34
-195 147 -208 147 -6 0 -10 5 -10 10 0 6 -7 10 -15 10 -8 0 -15 5 -15 10 0 6
-6 10 -14 10 -8 0 -16 4 -18 8 -4 12 -155 85 -203 100 -122 37 -325 54 -467
40z"/>
<path d="M7223 8721 c3 -11 1 -24 -4 -27 -5 -3 -7 -9 -5 -13 4 -6 7 -207 5
-291 -1 -34 0 -803 1 -895 1 -55 1 -125 1 -155 0 -30 -1 -102 0 -160 0 -58 0
-130 0 -160 -1 -30 0 -102 0 -160 1 -88 0 -192 -2 -235 0 -5 -1 -183 0 -395 0
-212 0 -392 0 -400 -1 -8 -1 -188 0 -400 0 -212 0 -392 -1 -400 0 -8 0 -80 1
-160 0 -80 0 -152 0 -160 0 -8 0 -116 0 -240 0 -124 0 -233 0 -242 0 -10 0
-52 1 -94 l1 -77 97 94 c54 52 106 106 117 121 11 16 23 28 26 28 9 0 890 889
1220 1231 213 220 227 235 369 388 52 56 118 126 145 155 28 29 77 83 110 121
33 37 65 73 70 79 6 6 33 38 60 71 28 33 53 62 56 65 3 3 29 38 58 78 42 59
50 78 47 105 -5 35 -26 99 -35 107 -3 3 -12 17 -20 32 -19 38 -115 162 -175
227 -63 68 -326 332 -326 327 0 -2 -27 22 -60 54 -33 32 -60 56 -60 54 0 -3
-12 8 -27 23 -23 23 -98 89 -263 230 -78 66 -291 241 -356 290 -40 32 -74 61
-74 65 0 4 -5 8 -11 8 -6 0 -37 23 -69 50 -32 28 -60 50 -64 50 -3 0 -18 11
-33 25 -36 32 -104 86 -133 105 -12 8 -32 23 -43 33 -12 11 -59 46 -104 80
-46 34 -83 65 -83 69 0 4 -5 8 -11 8 -6 0 -33 18 -59 40 -26 22 -51 40 -56 40
-4 0 -14 7 -23 15 -9 9 -59 47 -111 86 -52 38 -108 80 -124 92 -51 39 -60 42
-53 18z"/>
<path d="M648 7025 c-2 -1 -68 -6 -148 -10 -170 -9 -235 -13 -235 -15 0 -2
-34 -8 -78 -14 -43 -7 -73 -31 -96 -79 -21 -43 -26 -60 -37 -117 -2 -14 -7
-36 -10 -50 -6 -29 -14 -81 -19 -130 -26 -268 -26 -1048 1 -1485 5 -95 11
-204 19 -340 5 -112 15 -255 21 -330 2 -27 6 -88 9 -135 3 -47 7 -110 9 -140
8 -101 16 -205 21 -250 2 -25 7 -74 9 -110 3 -36 8 -96 12 -135 3 -38 7 -82 8
-97 1 -15 5 -30 8 -33 3 -3 59 47 125 112 66 65 237 233 380 373 143 140 424
416 624 612 612 600 692 678 742 724 26 25 47 47 47 49 0 2 28 30 61 62 69 65
179 173 644 629 742 727 870 854 865 855 -3 0 -61 2 -130 4 -69 2 -195 7 -280
10 -85 4 -211 8 -280 10 -69 2 -127 4 -130 5 -14 6 -47 4 -61 -2 -9 -4 -19 -5
-22 -1 -4 3 -75 7 -159 9 -84 1 -238 6 -343 9 -195 7 -1571 15 -1577 10z"/>
<path d="M7817 4418 c-880 -880 -1597 -1601 -1595 -1604 4 -3 21 -5 158 -19
52 -5 96 -9 200 -20 97 -10 258 -25 320 -30 25 -2 45 -4 45 -5 0 -1 127 -10
197 -13 27 -1 48 -4 48 -7 0 -3 28 -6 63 -6 70 -2 223 -11 312 -19 210 -19
601 -34 920 -34 345 -1 524 10 680 39 28 5 65 12 83 15 80 13 188 80 196 122
2 10 7 29 10 43 38 163 50 404 49 955 -1 454 -8 767 -28 1270 -3 83 -8 194
-10 247 -2 54 -6 102 -9 107 -4 5 -2 12 4 16 6 4 7 11 4 17 -7 11 -16 181 -18
321 -1 37 -3 67 -6 67 -3 0 -5 30 -5 67 0 36 -5 67 -10 68 -6 2 -729 -717
-1608 -1597z"/>
<path d="M2860 3229 c-12 -39 -23 -79 -25 -88 -2 -9 -15 -56 -30 -106 -46
-156 -165 -649 -160 -662 2 -7 1 -13 -4 -13 -4 0 -8 -6 -9 -12 -3 -30 -11 -77
-22 -128 -6 -30 -13 -66 -16 -80 -2 -14 -7 -36 -9 -50 -3 -14 -7 -43 -10 -65
-3 -22 -8 -51 -11 -65 -11 -58 -13 -69 -18 -101 -3 -19 -8 -56 -11 -84 -3 -27
-9 -68 -12 -90 -25 -174 -36 -564 -19 -710 11 -106 13 -115 30 -185 21 -82 31
-110 69 -188 32 -65 115 -158 164 -182 15 -8 39 -22 53 -31 44 -29 217 -86
315 -103 17 -3 39 -8 51 -10 198 -40 686 -50 1039 -21 33 3 94 7 135 10 41 3
95 8 120 11 25 3 65 7 90 9 58 6 215 25 260 31 19 3 53 7 75 10 22 3 56 7 75
10 19 3 49 7 65 10 17 2 41 6 55 9 14 3 43 8 65 10 61 8 100 13 100 15 0 1 9
3 20 5 44 7 121 18 140 20 11 2 32 5 48 9 15 3 39 8 55 11 15 3 38 8 52 10 14
3 39 8 55 10 17 3 41 8 55 10 60 12 77 16 105 21 16 3 31 7 33 8 1 2 -11 16
-28 32 -17 16 -66 63 -109 104 -42 41 -146 140 -230 220 -181 173 -238 227
-447 427 -87 83 -193 184 -234 223 -41 40 -146 140 -234 223 -87 84 -184 176
-215 206 -31 29 -132 126 -225 215 -179 171 -238 228 -446 426 -223 211 -556
530 -670 640 -121 116 -105 113 -130 29z"/>
<path d="M4040 2491 c0 -10 1015 -1010 1324 -1304 87 -84 187 -179 221 -212
70 -67 154 -145 305 -285 57 -52 121 -111 141 -130 237 -222 488 -424 540
-435 39 -9 145 19 231 59 79 38 235 139 323 209 29 23 68 53 86 67 27 20 146
122 205 175 106 95 247 229 363 346 234 234 424 436 641 678 36 41 79 88 95
106 17 18 44 51 62 72 18 21 46 54 63 73 17 19 43 49 57 65 14 17 48 57 77 89
82 95 129 150 166 196 19 23 40 48 45 54 9 9 101 121 135 163 6 7 10 14 10 16
0 2 -1145 4 -2545 4 -1400 0 -2545 -3 -2545 -6z"/>
</g>
</svg>
